<mxfile host="65bd71144e">
    <diagram id="TgTCUAiVcpTxrRbQ8fkL" name="登录注册">
        <mxGraphModel dx="1086" dy="689" grid="1" gridSize="10" guides="1" tooltips="1" connect="1" arrows="1" fold="1" page="1" pageScale="1" pageWidth="827" pageHeight="1169" math="0" shadow="0">
            <root>
                <mxCell id="0"/>
                <mxCell id="1" parent="0"/>
                <mxCell id="2qx3D4ieB-CU-EWsASrv-9" value="" style="rounded=0;whiteSpace=wrap;html=1;" vertex="1" parent="1">
                    <mxGeometry x="96" y="130" width="635" height="450" as="geometry"/>
                </mxCell>
                <mxCell id="3" value="" style="rounded=0;whiteSpace=wrap;html=1;fillColor=#dae8fc;strokeColor=#6c8ebf;" parent="1" vertex="1">
                    <mxGeometry x="251" y="180" width="420" height="350" as="geometry"/>
                </mxCell>
                <mxCell id="Y-jVbccRu_-pi2pQ3prs-21" style="edgeStyle=none;html=1;" parent="1" source="2" target="Y-jVbccRu_-pi2pQ3prs-20" edge="1">
                    <mxGeometry relative="1" as="geometry"/>
                </mxCell>
                <mxCell id="2" value="程序猿" style="shape=umlActor;verticalLabelPosition=bottom;verticalAlign=top;html=1;" parent="1" vertex="1">
                    <mxGeometry x="141" y="330" width="30" height="60" as="geometry"/>
                </mxCell>
                <mxCell id="4" value="注册" style="ellipse;whiteSpace=wrap;html=1;" parent="1" vertex="1">
                    <mxGeometry x="291" y="230" width="140" height="70" as="geometry"/>
                </mxCell>
                <mxCell id="5" value="CodePod" style="text;html=1;align=center;verticalAlign=middle;resizable=0;points=[];autosize=1;strokeColor=none;fillColor=none;" parent="1" vertex="1">
                    <mxGeometry x="421" y="180" width="70" height="30" as="geometry"/>
                </mxCell>
                <mxCell id="prGtgSQWzipG7ciV8rYB-11" style="edgeStyle=none;html=1;" parent="1" source="7" target="prGtgSQWzipG7ciV8rYB-9" edge="1">
                    <mxGeometry relative="1" as="geometry"/>
                </mxCell>
                <mxCell id="prGtgSQWzipG7ciV8rYB-12" style="edgeStyle=none;html=1;" parent="1" source="7" target="prGtgSQWzipG7ciV8rYB-10" edge="1">
                    <mxGeometry relative="1" as="geometry"/>
                </mxCell>
                <mxCell id="7" value="登录" style="ellipse;whiteSpace=wrap;html=1;" parent="1" vertex="1">
                    <mxGeometry x="291" y="340" width="140" height="70" as="geometry"/>
                </mxCell>
                <mxCell id="8" style="edgeStyle=none;html=1;" parent="1" source="2" target="4" edge="1">
                    <mxGeometry relative="1" as="geometry"/>
                </mxCell>
                <mxCell id="9" style="edgeStyle=none;html=1;" parent="1" source="2" target="7" edge="1">
                    <mxGeometry relative="1" as="geometry"/>
                </mxCell>
                <mxCell id="Y-jVbccRu_-pi2pQ3prs-16" value="用户登录注册用例图" style="text;html=1;align=center;verticalAlign=middle;resizable=0;points=[];autosize=1;strokeColor=none;fillColor=none;" parent="1" vertex="1">
                    <mxGeometry x="396" y="540" width="130" height="30" as="geometry"/>
                </mxCell>
                <mxCell id="Y-jVbccRu_-pi2pQ3prs-20" value="登出" style="ellipse;whiteSpace=wrap;html=1;" parent="1" vertex="1">
                    <mxGeometry x="291" y="440" width="140" height="70" as="geometry"/>
                </mxCell>
                <mxCell id="prGtgSQWzipG7ciV8rYB-9" value="微信扫码登录" style="ellipse;whiteSpace=wrap;html=1;" parent="1" vertex="1">
                    <mxGeometry x="501" y="320" width="110" height="50" as="geometry"/>
                </mxCell>
                <mxCell id="prGtgSQWzipG7ciV8rYB-10" value="用户名密码登录" style="ellipse;whiteSpace=wrap;html=1;" parent="1" vertex="1">
                    <mxGeometry x="501" y="390" width="110" height="50" as="geometry"/>
                </mxCell>
            </root>
        </mxGraphModel>
    </diagram>
    <diagram id="yR0nEVYnfuinWNlTYIsa" name="项目管理">
        <mxGraphModel dx="1086" dy="689" grid="1" gridSize="10" guides="1" tooltips="1" connect="1" arrows="1" fold="1" page="1" pageScale="1" pageWidth="827" pageHeight="1169" math="0" shadow="0">
            <root>
                <mxCell id="0"/>
                <mxCell id="1" parent="0"/>
                <mxCell id="Xawza1hsTGfmSGbRVUdh-1" value="" style="rounded=0;whiteSpace=wrap;html=1;" vertex="1" parent="1">
                    <mxGeometry x="90" y="200" width="460" height="480" as="geometry"/>
                </mxCell>
                <mxCell id="yyx_Gpzdhxsso_DX6iVN-1" value="" style="rounded=0;whiteSpace=wrap;html=1;fillColor=#cce5ff;strokeColor=#36393d;" parent="1" vertex="1">
                    <mxGeometry x="270" y="230" width="240" height="410" as="geometry"/>
                </mxCell>
                <mxCell id="yyx_Gpzdhxsso_DX6iVN-3" style="edgeStyle=none;html=1;" parent="1" source="yyx_Gpzdhxsso_DX6iVN-4" target="yyx_Gpzdhxsso_DX6iVN-12" edge="1">
                    <mxGeometry relative="1" as="geometry"/>
                </mxCell>
                <mxCell id="yyx_Gpzdhxsso_DX6iVN-4" value="项目管理者" style="shape=umlActor;verticalLabelPosition=bottom;verticalAlign=top;html=1;" parent="1" vertex="1">
                    <mxGeometry x="160" y="380" width="30" height="60" as="geometry"/>
                </mxCell>
                <mxCell id="yyx_Gpzdhxsso_DX6iVN-5" value="创建" style="ellipse;whiteSpace=wrap;html=1;" parent="1" vertex="1">
                    <mxGeometry x="310" y="310" width="140" height="70" as="geometry"/>
                </mxCell>
                <mxCell id="yyx_Gpzdhxsso_DX6iVN-6" value="CodePod" style="text;html=1;align=center;verticalAlign=middle;resizable=0;points=[];autosize=1;strokeColor=none;fillColor=none;" parent="1" vertex="1">
                    <mxGeometry x="345" y="230" width="70" height="30" as="geometry"/>
                </mxCell>
                <mxCell id="yyx_Gpzdhxsso_DX6iVN-7" value="删除" style="ellipse;whiteSpace=wrap;html=1;" parent="1" vertex="1">
                    <mxGeometry x="320" y="530" width="140" height="70" as="geometry"/>
                </mxCell>
                <mxCell id="yyx_Gpzdhxsso_DX6iVN-8" style="edgeStyle=none;html=1;" parent="1" source="yyx_Gpzdhxsso_DX6iVN-4" target="yyx_Gpzdhxsso_DX6iVN-5" edge="1">
                    <mxGeometry relative="1" as="geometry"/>
                </mxCell>
                <mxCell id="yyx_Gpzdhxsso_DX6iVN-9" style="edgeStyle=none;html=1;" parent="1" source="yyx_Gpzdhxsso_DX6iVN-4" target="yyx_Gpzdhxsso_DX6iVN-7" edge="1">
                    <mxGeometry relative="1" as="geometry"/>
                </mxCell>
                <mxCell id="yyx_Gpzdhxsso_DX6iVN-10" value="项目管理用例图" style="text;html=1;align=center;verticalAlign=middle;resizable=0;points=[];autosize=1;strokeColor=none;fillColor=none;" parent="1" vertex="1">
                    <mxGeometry x="330" y="650" width="110" height="30" as="geometry"/>
                </mxCell>
                <mxCell id="yyx_Gpzdhxsso_DX6iVN-12" value="修改" style="ellipse;whiteSpace=wrap;html=1;" parent="1" vertex="1">
                    <mxGeometry x="315" y="420" width="140" height="70" as="geometry"/>
                </mxCell>
            </root>
        </mxGraphModel>
    </diagram>
    <diagram id="ebiDekiTFiweqdOIA5Az" name="空间模板">
        <mxGraphModel dx="1086" dy="689" grid="1" gridSize="10" guides="1" tooltips="1" connect="1" arrows="1" fold="1" page="1" pageScale="1" pageWidth="827" pageHeight="1169" math="0" shadow="0">
            <root>
                <mxCell id="0"/>
                <mxCell id="1" parent="0"/>
                <mxCell id="YM8EHQAuOuDtphGUrN3E-1" value="" style="rounded=0;whiteSpace=wrap;html=1;" vertex="1" parent="1">
                    <mxGeometry x="10" y="10" width="820" height="890" as="geometry"/>
                </mxCell>
                <mxCell id="K6Szr2WWAs6mvH63RR3F-1" value="" style="rounded=0;whiteSpace=wrap;html=1;fillColor=#dae8fc;strokeColor=#6c8ebf;" parent="1" vertex="1">
                    <mxGeometry x="220" y="40" width="590" height="780" as="geometry"/>
                </mxCell>
                <mxCell id="K6Szr2WWAs6mvH63RR3F-2" style="edgeStyle=none;html=1;" parent="1" source="K6Szr2WWAs6mvH63RR3F-4" target="K6Szr2WWAs6mvH63RR3F-11" edge="1">
                    <mxGeometry relative="1" as="geometry"/>
                </mxCell>
                <mxCell id="K6Szr2WWAs6mvH63RR3F-3" style="edgeStyle=none;html=1;" parent="1" source="K6Szr2WWAs6mvH63RR3F-4" target="K6Szr2WWAs6mvH63RR3F-12" edge="1">
                    <mxGeometry relative="1" as="geometry"/>
                </mxCell>
                <mxCell id="K6Szr2WWAs6mvH63RR3F-27" style="edgeStyle=none;html=1;fontSize=9;" parent="1" source="K6Szr2WWAs6mvH63RR3F-4" target="K6Szr2WWAs6mvH63RR3F-26" edge="1">
                    <mxGeometry relative="1" as="geometry"/>
                </mxCell>
                <mxCell id="-lUyIPR63ZEy9vzBQKtA-6" style="edgeStyle=none;html=1;fontSize=9;" parent="1" source="K6Szr2WWAs6mvH63RR3F-4" target="-lUyIPR63ZEy9vzBQKtA-1" edge="1">
                    <mxGeometry relative="1" as="geometry"/>
                </mxCell>
                <mxCell id="K6Szr2WWAs6mvH63RR3F-4" value="模板管理者" style="shape=umlActor;verticalLabelPosition=bottom;verticalAlign=top;html=1;" parent="1" vertex="1">
                    <mxGeometry x="70" y="340" width="30" height="60" as="geometry"/>
                </mxCell>
                <mxCell id="K6Szr2WWAs6mvH63RR3F-23" style="edgeStyle=none;html=1;fontSize=9;" parent="1" source="K6Szr2WWAs6mvH63RR3F-5" target="K6Szr2WWAs6mvH63RR3F-20" edge="1">
                    <mxGeometry relative="1" as="geometry"/>
                </mxCell>
                <mxCell id="K6Szr2WWAs6mvH63RR3F-24" style="edgeStyle=none;html=1;fontSize=9;" parent="1" source="K6Szr2WWAs6mvH63RR3F-5" target="K6Szr2WWAs6mvH63RR3F-21" edge="1">
                    <mxGeometry relative="1" as="geometry"/>
                </mxCell>
                <mxCell id="K6Szr2WWAs6mvH63RR3F-25" style="edgeStyle=none;html=1;fontSize=9;" parent="1" source="K6Szr2WWAs6mvH63RR3F-5" target="K6Szr2WWAs6mvH63RR3F-22" edge="1">
                    <mxGeometry relative="1" as="geometry"/>
                </mxCell>
                <mxCell id="K6Szr2WWAs6mvH63RR3F-5" value="查询空间模板" style="ellipse;whiteSpace=wrap;html=1;" parent="1" vertex="1">
                    <mxGeometry x="260" y="160" width="140" height="70" as="geometry"/>
                </mxCell>
                <mxCell id="K6Szr2WWAs6mvH63RR3F-6" value="CodePod" style="text;html=1;align=center;verticalAlign=middle;resizable=0;points=[];autosize=1;strokeColor=none;fillColor=none;" parent="1" vertex="1">
                    <mxGeometry x="480" y="40" width="70" height="30" as="geometry"/>
                </mxCell>
                <mxCell id="K6Szr2WWAs6mvH63RR3F-8" style="edgeStyle=none;html=1;" parent="1" source="K6Szr2WWAs6mvH63RR3F-4" target="K6Szr2WWAs6mvH63RR3F-5" edge="1">
                    <mxGeometry relative="1" as="geometry"/>
                </mxCell>
                <mxCell id="K6Szr2WWAs6mvH63RR3F-10" value="空间模板管理用例图" style="text;html=1;align=center;verticalAlign=middle;resizable=0;points=[];autosize=1;strokeColor=none;fillColor=none;" parent="1" vertex="1">
                    <mxGeometry x="460" y="830" width="130" height="30" as="geometry"/>
                </mxCell>
                <mxCell id="K6Szr2WWAs6mvH63RR3F-11" value="删除" style="ellipse;whiteSpace=wrap;html=1;" parent="1" vertex="1">
                    <mxGeometry x="274" y="585" width="140" height="70" as="geometry"/>
                </mxCell>
                <mxCell id="K6Szr2WWAs6mvH63RR3F-14" style="edgeStyle=none;html=1;fontSize=9;" parent="1" source="K6Szr2WWAs6mvH63RR3F-12" target="K6Szr2WWAs6mvH63RR3F-13" edge="1">
                    <mxGeometry relative="1" as="geometry"/>
                </mxCell>
                <mxCell id="K6Szr2WWAs6mvH63RR3F-16" style="edgeStyle=none;html=1;fontSize=9;" parent="1" source="K6Szr2WWAs6mvH63RR3F-12" target="K6Szr2WWAs6mvH63RR3F-15" edge="1">
                    <mxGeometry relative="1" as="geometry"/>
                </mxCell>
                <mxCell id="K6Szr2WWAs6mvH63RR3F-18" style="edgeStyle=none;html=1;fontSize=9;" parent="1" source="K6Szr2WWAs6mvH63RR3F-12" target="K6Szr2WWAs6mvH63RR3F-17" edge="1">
                    <mxGeometry relative="1" as="geometry"/>
                </mxCell>
                <mxCell id="K6Szr2WWAs6mvH63RR3F-12" value="创建空间模板" style="ellipse;whiteSpace=wrap;html=1;" parent="1" vertex="1">
                    <mxGeometry x="265" y="325" width="140" height="70" as="geometry"/>
                </mxCell>
                <mxCell id="K6Szr2WWAs6mvH63RR3F-13" value="基于工作空间创建" style="ellipse;whiteSpace=wrap;html=1;" parent="1" vertex="1">
                    <mxGeometry x="560" y="335" width="110" height="55" as="geometry"/>
                </mxCell>
                <mxCell id="K6Szr2WWAs6mvH63RR3F-15" value="自定义创建" style="ellipse;whiteSpace=wrap;html=1;" parent="1" vertex="1">
                    <mxGeometry x="520" y="390" width="110" height="55" as="geometry"/>
                </mxCell>
                <mxCell id="K6Szr2WWAs6mvH63RR3F-17" value="基于系统空间模板创建" style="ellipse;whiteSpace=wrap;html=1;" parent="1" vertex="1">
                    <mxGeometry x="500" y="285" width="110" height="55" as="geometry"/>
                </mxCell>
                <mxCell id="K6Szr2WWAs6mvH63RR3F-20" value="查询系统模板" style="ellipse;whiteSpace=wrap;html=1;" parent="1" vertex="1">
                    <mxGeometry x="460" y="100" width="110" height="55" as="geometry"/>
                </mxCell>
                <mxCell id="K6Szr2WWAs6mvH63RR3F-21" value="查询个人模板" style="ellipse;whiteSpace=wrap;html=1;" parent="1" vertex="1">
                    <mxGeometry x="570" y="150" width="110" height="55" as="geometry"/>
                </mxCell>
                <mxCell id="K6Szr2WWAs6mvH63RR3F-22" value="查询查询组织模板" style="ellipse;whiteSpace=wrap;html=1;" parent="1" vertex="1">
                    <mxGeometry x="500" y="210" width="110" height="55" as="geometry"/>
                </mxCell>
                <mxCell id="Ph4F5qlaNeI9--JTwx00-2" style="edgeStyle=none;html=1;fontSize=9;" parent="1" source="K6Szr2WWAs6mvH63RR3F-26" target="Ph4F5qlaNeI9--JTwx00-1" edge="1">
                    <mxGeometry relative="1" as="geometry"/>
                </mxCell>
                <mxCell id="Ph4F5qlaNeI9--JTwx00-4" style="edgeStyle=none;html=1;fontSize=9;" parent="1" source="K6Szr2WWAs6mvH63RR3F-26" target="Ph4F5qlaNeI9--JTwx00-3" edge="1">
                    <mxGeometry relative="1" as="geometry"/>
                </mxCell>
                <mxCell id="K6Szr2WWAs6mvH63RR3F-26" value="编辑" style="ellipse;whiteSpace=wrap;html=1;" parent="1" vertex="1">
                    <mxGeometry x="265" y="475" width="140" height="70" as="geometry"/>
                </mxCell>
                <mxCell id="Ph4F5qlaNeI9--JTwx00-1" value="修改名称" style="ellipse;whiteSpace=wrap;html=1;" parent="1" vertex="1">
                    <mxGeometry x="520" y="470" width="110" height="55" as="geometry"/>
                </mxCell>
                <mxCell id="Ph4F5qlaNeI9--JTwx00-3" value="修改描述" style="ellipse;whiteSpace=wrap;html=1;" parent="1" vertex="1">
                    <mxGeometry x="520" y="530" width="110" height="55" as="geometry"/>
                </mxCell>
                <mxCell id="-lUyIPR63ZEy9vzBQKtA-3" style="edgeStyle=none;html=1;fontSize=9;" parent="1" source="-lUyIPR63ZEy9vzBQKtA-1" target="-lUyIPR63ZEy9vzBQKtA-2" edge="1">
                    <mxGeometry relative="1" as="geometry"/>
                </mxCell>
                <mxCell id="-lUyIPR63ZEy9vzBQKtA-5" style="edgeStyle=none;html=1;fontSize=9;" parent="1" source="-lUyIPR63ZEy9vzBQKtA-1" target="-lUyIPR63ZEy9vzBQKtA-4" edge="1">
                    <mxGeometry relative="1" as="geometry"/>
                </mxCell>
                <mxCell id="-lUyIPR63ZEy9vzBQKtA-1" value="共享" style="ellipse;whiteSpace=wrap;html=1;" parent="1" vertex="1">
                    <mxGeometry x="274" y="690" width="140" height="70" as="geometry"/>
                </mxCell>
                <mxCell id="-lUyIPR63ZEy9vzBQKtA-9" style="edgeStyle=none;html=1;fontSize=9;" parent="1" source="-lUyIPR63ZEy9vzBQKtA-2" target="-lUyIPR63ZEy9vzBQKtA-8" edge="1">
                    <mxGeometry relative="1" as="geometry"/>
                </mxCell>
                <mxCell id="-lUyIPR63ZEy9vzBQKtA-2" value="共享给组织内部" style="ellipse;whiteSpace=wrap;html=1;" parent="1" vertex="1">
                    <mxGeometry x="520" y="655" width="110" height="55" as="geometry"/>
                </mxCell>
                <mxCell id="-lUyIPR63ZEy9vzBQKtA-10" style="edgeStyle=none;html=1;fontSize=9;" parent="1" source="-lUyIPR63ZEy9vzBQKtA-4" target="-lUyIPR63ZEy9vzBQKtA-7" edge="1">
                    <mxGeometry relative="1" as="geometry"/>
                </mxCell>
                <mxCell id="-lUyIPR63ZEy9vzBQKtA-4" value="共享给平台" style="ellipse;whiteSpace=wrap;html=1;" parent="1" vertex="1">
                    <mxGeometry x="520" y="730" width="110" height="55" as="geometry"/>
                </mxCell>
                <mxCell id="-lUyIPR63ZEy9vzBQKtA-7" value="平台审核" style="ellipse;whiteSpace=wrap;html=1;" parent="1" vertex="1">
                    <mxGeometry x="670" y="730" width="110" height="55" as="geometry"/>
                </mxCell>
                <mxCell id="-lUyIPR63ZEy9vzBQKtA-8" value="组织管理者审核" style="ellipse;whiteSpace=wrap;html=1;" parent="1" vertex="1">
                    <mxGeometry x="670" y="655" width="110" height="55" as="geometry"/>
                </mxCell>
            </root>
        </mxGraphModel>
    </diagram>
    <diagram id="vBApsPbXRlnZrQ6Tc0BV" name="工作空间">
        <mxGraphModel dx="1086" dy="689" grid="1" gridSize="10" guides="1" tooltips="1" connect="1" arrows="1" fold="1" page="1" pageScale="1" pageWidth="827" pageHeight="1169" math="0" shadow="0">
            <root>
                <mxCell id="0"/>
                <mxCell id="1" parent="0"/>
                <mxCell id="BPe3u0-VrkSw74wH60jz-1" value="" style="rounded=0;whiteSpace=wrap;html=1;" vertex="1" parent="1">
                    <mxGeometry x="10" y="90" width="780" height="890" as="geometry"/>
                </mxCell>
                <mxCell id="8JtnFulFrV2DlDKcVJuh-1" value="" style="rounded=0;whiteSpace=wrap;html=1;fillColor=#dae8fc;strokeColor=#6c8ebf;" parent="1" vertex="1">
                    <mxGeometry x="240" y="140" width="510" height="790" as="geometry"/>
                </mxCell>
                <mxCell id="8JtnFulFrV2DlDKcVJuh-2" style="edgeStyle=none;html=1;" parent="1" source="8JtnFulFrV2DlDKcVJuh-4" target="8JtnFulFrV2DlDKcVJuh-11" edge="1">
                    <mxGeometry relative="1" as="geometry"/>
                </mxCell>
                <mxCell id="8JtnFulFrV2DlDKcVJuh-3" style="edgeStyle=none;html=1;" parent="1" source="8JtnFulFrV2DlDKcVJuh-4" target="8JtnFulFrV2DlDKcVJuh-12" edge="1">
                    <mxGeometry relative="1" as="geometry"/>
                </mxCell>
                <mxCell id="O4ZiQTdJHhqHKVpbNv2Y-2" style="edgeStyle=none;html=1;fontSize=9;" parent="1" source="8JtnFulFrV2DlDKcVJuh-4" target="8JtnFulFrV2DlDKcVJuh-15" edge="1">
                    <mxGeometry relative="1" as="geometry"/>
                </mxCell>
                <mxCell id="CJCVJR-Hs2ugZzOf_1E3-2" style="edgeStyle=none;html=1;entryX=0;entryY=0.5;entryDx=0;entryDy=0;fontSize=9;" parent="1" source="8JtnFulFrV2DlDKcVJuh-4" target="CJCVJR-Hs2ugZzOf_1E3-1" edge="1">
                    <mxGeometry relative="1" as="geometry"/>
                </mxCell>
                <mxCell id="8JtnFulFrV2DlDKcVJuh-4" value="程序猿" style="shape=umlActor;verticalLabelPosition=bottom;verticalAlign=top;html=1;" parent="1" vertex="1">
                    <mxGeometry x="40" y="400" width="30" height="60" as="geometry"/>
                </mxCell>
                <mxCell id="8JtnFulFrV2DlDKcVJuh-5" value="查询" style="ellipse;whiteSpace=wrap;html=1;" parent="1" vertex="1">
                    <mxGeometry x="285" y="210" width="140" height="70" as="geometry"/>
                </mxCell>
                <mxCell id="8JtnFulFrV2DlDKcVJuh-6" value="CodePod" style="text;html=1;align=center;verticalAlign=middle;resizable=0;points=[];autosize=1;strokeColor=none;fillColor=none;" parent="1" vertex="1">
                    <mxGeometry x="415" y="140" width="70" height="30" as="geometry"/>
                </mxCell>
                <mxCell id="8JtnFulFrV2DlDKcVJuh-30" style="edgeStyle=none;html=1;fontSize=9;" parent="1" source="8JtnFulFrV2DlDKcVJuh-7" target="8JtnFulFrV2DlDKcVJuh-25" edge="1">
                    <mxGeometry relative="1" as="geometry"/>
                </mxCell>
                <mxCell id="8JtnFulFrV2DlDKcVJuh-32" style="edgeStyle=none;html=1;fontSize=9;" parent="1" source="8JtnFulFrV2DlDKcVJuh-7" target="8JtnFulFrV2DlDKcVJuh-29" edge="1">
                    <mxGeometry relative="1" as="geometry"/>
                </mxCell>
                <mxCell id="8JtnFulFrV2DlDKcVJuh-33" style="edgeStyle=none;html=1;fontSize=9;" parent="1" source="8JtnFulFrV2DlDKcVJuh-7" target="8JtnFulFrV2DlDKcVJuh-27" edge="1">
                    <mxGeometry relative="1" as="geometry"/>
                </mxCell>
                <mxCell id="8JtnFulFrV2DlDKcVJuh-7" value="控制" style="ellipse;whiteSpace=wrap;html=1;" parent="1" vertex="1">
                    <mxGeometry x="290" y="510" width="140" height="70" as="geometry"/>
                </mxCell>
                <mxCell id="8JtnFulFrV2DlDKcVJuh-8" style="edgeStyle=none;html=1;" parent="1" source="8JtnFulFrV2DlDKcVJuh-4" target="8JtnFulFrV2DlDKcVJuh-5" edge="1">
                    <mxGeometry relative="1" as="geometry"/>
                </mxCell>
                <mxCell id="8JtnFulFrV2DlDKcVJuh-9" style="edgeStyle=none;html=1;" parent="1" source="8JtnFulFrV2DlDKcVJuh-4" target="8JtnFulFrV2DlDKcVJuh-7" edge="1">
                    <mxGeometry relative="1" as="geometry"/>
                </mxCell>
                <mxCell id="8JtnFulFrV2DlDKcVJuh-10" value="工作空间用例图" style="text;html=1;align=center;verticalAlign=middle;resizable=0;points=[];autosize=1;strokeColor=none;fillColor=none;" parent="1" vertex="1">
                    <mxGeometry x="428" y="940" width="110" height="30" as="geometry"/>
                </mxCell>
                <mxCell id="8JtnFulFrV2DlDKcVJuh-11" value="打开IDE" style="ellipse;whiteSpace=wrap;html=1;" parent="1" vertex="1">
                    <mxGeometry x="290" y="620" width="140" height="70" as="geometry"/>
                </mxCell>
                <mxCell id="8JtnFulFrV2DlDKcVJuh-14" style="edgeStyle=none;html=1;" parent="1" source="8JtnFulFrV2DlDKcVJuh-12" target="8JtnFulFrV2DlDKcVJuh-13" edge="1">
                    <mxGeometry relative="1" as="geometry"/>
                </mxCell>
                <mxCell id="8JtnFulFrV2DlDKcVJuh-21" style="edgeStyle=none;html=1;" parent="1" source="8JtnFulFrV2DlDKcVJuh-12" target="8JtnFulFrV2DlDKcVJuh-20" edge="1">
                    <mxGeometry relative="1" as="geometry"/>
                </mxCell>
                <mxCell id="8JtnFulFrV2DlDKcVJuh-23" style="edgeStyle=none;html=1;" parent="1" source="8JtnFulFrV2DlDKcVJuh-12" target="8JtnFulFrV2DlDKcVJuh-22" edge="1">
                    <mxGeometry relative="1" as="geometry"/>
                </mxCell>
                <mxCell id="mJ4vU0qxpEes13pi4t8Q-2" style="edgeStyle=none;html=1;fontSize=9;" parent="1" source="8JtnFulFrV2DlDKcVJuh-12" target="mJ4vU0qxpEes13pi4t8Q-1" edge="1">
                    <mxGeometry relative="1" as="geometry"/>
                </mxCell>
                <mxCell id="8JtnFulFrV2DlDKcVJuh-12" value="创建" style="ellipse;whiteSpace=wrap;html=1;" parent="1" vertex="1">
                    <mxGeometry x="285" y="310" width="140" height="70" as="geometry"/>
                </mxCell>
                <mxCell id="8JtnFulFrV2DlDKcVJuh-13" value="使用模板" style="ellipse;whiteSpace=wrap;html=1;" parent="1" vertex="1">
                    <mxGeometry x="595" y="260" width="120" height="50" as="geometry"/>
                </mxCell>
                <mxCell id="8JtnFulFrV2DlDKcVJuh-18" style="edgeStyle=none;html=1;" parent="1" source="8JtnFulFrV2DlDKcVJuh-15" target="8JtnFulFrV2DlDKcVJuh-16" edge="1">
                    <mxGeometry relative="1" as="geometry"/>
                </mxCell>
                <mxCell id="8JtnFulFrV2DlDKcVJuh-19" style="edgeStyle=none;html=1;" parent="1" source="8JtnFulFrV2DlDKcVJuh-15" target="8JtnFulFrV2DlDKcVJuh-17" edge="1">
                    <mxGeometry relative="1" as="geometry"/>
                </mxCell>
                <mxCell id="8JtnFulFrV2DlDKcVJuh-15" value="修改" style="ellipse;whiteSpace=wrap;html=1;" parent="1" vertex="1">
                    <mxGeometry x="290" y="720" width="140" height="70" as="geometry"/>
                </mxCell>
                <mxCell id="8JtnFulFrV2DlDKcVJuh-16" value="修改名称" style="ellipse;whiteSpace=wrap;html=1;" parent="1" vertex="1">
                    <mxGeometry x="520" y="700" width="120" height="50" as="geometry"/>
                </mxCell>
                <mxCell id="8JtnFulFrV2DlDKcVJuh-17" value="修改描述" style="ellipse;whiteSpace=wrap;html=1;" parent="1" vertex="1">
                    <mxGeometry x="520" y="770" width="120" height="50" as="geometry"/>
                </mxCell>
                <mxCell id="8JtnFulFrV2DlDKcVJuh-20" value="挂载数据空间" style="ellipse;whiteSpace=wrap;html=1;" parent="1" vertex="1">
                    <mxGeometry x="595" y="320" width="120" height="50" as="geometry"/>
                </mxCell>
                <mxCell id="8JtnFulFrV2DlDKcVJuh-22" value="选择资源" style="ellipse;whiteSpace=wrap;html=1;" parent="1" vertex="1">
                    <mxGeometry x="520" y="370" width="120" height="50" as="geometry"/>
                </mxCell>
                <mxCell id="8JtnFulFrV2DlDKcVJuh-25" value="释放" style="ellipse;whiteSpace=wrap;html=1;" parent="1" vertex="1">
                    <mxGeometry x="510" y="460" width="120" height="50" as="geometry"/>
                </mxCell>
                <mxCell id="8JtnFulFrV2DlDKcVJuh-26" value="开机" style="ellipse;whiteSpace=wrap;html=1;" parent="1" vertex="1">
                    <mxGeometry x="595" y="500" width="120" height="50" as="geometry"/>
                </mxCell>
                <mxCell id="8JtnFulFrV2DlDKcVJuh-29" value="关机" style="ellipse;whiteSpace=wrap;html=1;" parent="1" vertex="1">
                    <mxGeometry x="585" y="550" width="120" height="50" as="geometry"/>
                </mxCell>
                <mxCell id="8JtnFulFrV2DlDKcVJuh-27" value="重启" style="ellipse;whiteSpace=wrap;html=1;" parent="1" vertex="1">
                    <mxGeometry x="510" y="590" width="120" height="50" as="geometry"/>
                </mxCell>
                <mxCell id="8JtnFulFrV2DlDKcVJuh-31" style="edgeStyle=none;html=1;fontSize=9;" parent="1" source="8JtnFulFrV2DlDKcVJuh-7" target="8JtnFulFrV2DlDKcVJuh-26" edge="1">
                    <mxGeometry relative="1" as="geometry"/>
                </mxCell>
                <mxCell id="mJ4vU0qxpEes13pi4t8Q-1" value="选择项目" style="ellipse;whiteSpace=wrap;html=1;" parent="1" vertex="1">
                    <mxGeometry x="520" y="210" width="120" height="50" as="geometry"/>
                </mxCell>
                <mxCell id="CJCVJR-Hs2ugZzOf_1E3-1" value="分享协同" style="ellipse;whiteSpace=wrap;html=1;" parent="1" vertex="1">
                    <mxGeometry x="293" y="820" width="140" height="70" as="geometry"/>
                </mxCell>
            </root>
        </mxGraphModel>
    </diagram>
    <diagram id="5E5BRTO8YxQeiJiZcNBK" name="数据空间">
        <mxGraphModel dx="1086" dy="689" grid="1" gridSize="10" guides="1" tooltips="1" connect="1" arrows="1" fold="1" page="1" pageScale="1" pageWidth="827" pageHeight="1169" math="0" shadow="0">
            <root>
                <mxCell id="0"/>
                <mxCell id="1" parent="0"/>
                <mxCell id="HaBi43zlBiYFBgi5WAfJ-1" value="" style="rounded=0;whiteSpace=wrap;html=1;" vertex="1" parent="1">
                    <mxGeometry x="50" y="75" width="730" height="615" as="geometry"/>
                </mxCell>
                <mxCell id="kros4B0Hquekl_XNb1qP-1" value="" style="rounded=0;whiteSpace=wrap;html=1;fillColor=#dae8fc;strokeColor=#6c8ebf;" parent="1" vertex="1">
                    <mxGeometry x="269" y="135" width="441" height="515" as="geometry"/>
                </mxCell>
                <mxCell id="kros4B0Hquekl_XNb1qP-2" style="edgeStyle=none;html=1;" parent="1" source="kros4B0Hquekl_XNb1qP-4" target="kros4B0Hquekl_XNb1qP-11" edge="1">
                    <mxGeometry relative="1" as="geometry"/>
                </mxCell>
                <mxCell id="kros4B0Hquekl_XNb1qP-3" style="edgeStyle=none;html=1;" parent="1" source="kros4B0Hquekl_XNb1qP-4" target="kros4B0Hquekl_XNb1qP-12" edge="1">
                    <mxGeometry relative="1" as="geometry"/>
                </mxCell>
                <mxCell id="kros4B0Hquekl_XNb1qP-4" value="程序猿" style="shape=umlActor;verticalLabelPosition=bottom;verticalAlign=top;html=1;" parent="1" vertex="1">
                    <mxGeometry x="110" y="350" width="30" height="60" as="geometry"/>
                </mxCell>
                <mxCell id="kros4B0Hquekl_XNb1qP-5" value="创建" style="ellipse;whiteSpace=wrap;html=1;" parent="1" vertex="1">
                    <mxGeometry x="309" y="185" width="140" height="70" as="geometry"/>
                </mxCell>
                <mxCell id="kros4B0Hquekl_XNb1qP-6" value="CodePod" style="text;html=1;align=center;verticalAlign=middle;resizable=0;points=[];autosize=1;strokeColor=none;fillColor=none;" parent="1" vertex="1">
                    <mxGeometry x="449" y="135" width="70" height="30" as="geometry"/>
                </mxCell>
                <mxCell id="kros4B0Hquekl_XNb1qP-7" value="查询" style="ellipse;whiteSpace=wrap;html=1;" parent="1" vertex="1">
                    <mxGeometry x="314" y="360" width="140" height="70" as="geometry"/>
                </mxCell>
                <mxCell id="kros4B0Hquekl_XNb1qP-8" style="edgeStyle=none;html=1;" parent="1" source="kros4B0Hquekl_XNb1qP-4" target="kros4B0Hquekl_XNb1qP-5" edge="1">
                    <mxGeometry relative="1" as="geometry"/>
                </mxCell>
                <mxCell id="kros4B0Hquekl_XNb1qP-9" style="edgeStyle=none;html=1;" parent="1" source="kros4B0Hquekl_XNb1qP-4" target="kros4B0Hquekl_XNb1qP-7" edge="1">
                    <mxGeometry relative="1" as="geometry"/>
                </mxCell>
                <mxCell id="kros4B0Hquekl_XNb1qP-10" value="数据空间用例图" style="text;html=1;align=center;verticalAlign=middle;resizable=0;points=[];autosize=1;strokeColor=none;fillColor=none;" parent="1" vertex="1">
                    <mxGeometry x="409" y="650" width="110" height="30" as="geometry"/>
                </mxCell>
                <mxCell id="dp_-oXLjie-xofkenE0L-5" style="edgeStyle=none;html=1;fontSize=9;" parent="1" source="kros4B0Hquekl_XNb1qP-11" target="dp_-oXLjie-xofkenE0L-1" edge="1">
                    <mxGeometry relative="1" as="geometry"/>
                </mxCell>
                <mxCell id="dp_-oXLjie-xofkenE0L-6" style="edgeStyle=none;html=1;fontSize=9;" parent="1" source="kros4B0Hquekl_XNb1qP-11" target="dp_-oXLjie-xofkenE0L-3" edge="1">
                    <mxGeometry relative="1" as="geometry"/>
                </mxCell>
                <mxCell id="dp_-oXLjie-xofkenE0L-7" style="edgeStyle=none;html=1;fontSize=9;" parent="1" source="kros4B0Hquekl_XNb1qP-11" target="dp_-oXLjie-xofkenE0L-4" edge="1">
                    <mxGeometry relative="1" as="geometry"/>
                </mxCell>
                <mxCell id="kros4B0Hquekl_XNb1qP-11" value="控制" style="ellipse;whiteSpace=wrap;html=1;" parent="1" vertex="1">
                    <mxGeometry x="309" y="480" width="140" height="70" as="geometry"/>
                </mxCell>
                <mxCell id="dp_-oXLjie-xofkenE0L-12" style="edgeStyle=none;html=1;fontSize=9;" parent="1" source="kros4B0Hquekl_XNb1qP-12" target="dp_-oXLjie-xofkenE0L-9" edge="1">
                    <mxGeometry relative="1" as="geometry"/>
                </mxCell>
                <mxCell id="dp_-oXLjie-xofkenE0L-13" style="edgeStyle=none;html=1;fontSize=9;" parent="1" source="kros4B0Hquekl_XNb1qP-12" target="dp_-oXLjie-xofkenE0L-11" edge="1">
                    <mxGeometry relative="1" as="geometry"/>
                </mxCell>
                <mxCell id="kros4B0Hquekl_XNb1qP-12" value="管理" style="ellipse;whiteSpace=wrap;html=1;" parent="1" vertex="1">
                    <mxGeometry x="314" y="265" width="140" height="70" as="geometry"/>
                </mxCell>
                <mxCell id="dp_-oXLjie-xofkenE0L-1" value="扩容/缩容" style="ellipse;whiteSpace=wrap;html=1;" parent="1" vertex="1">
                    <mxGeometry x="530" y="430" width="110" height="50" as="geometry"/>
                </mxCell>
                <mxCell id="dp_-oXLjie-xofkenE0L-3" value="格式化" style="ellipse;whiteSpace=wrap;html=1;" parent="1" vertex="1">
                    <mxGeometry x="590" y="490" width="110" height="50" as="geometry"/>
                </mxCell>
                <mxCell id="dp_-oXLjie-xofkenE0L-4" value="快照/备份" style="ellipse;whiteSpace=wrap;html=1;" parent="1" vertex="1">
                    <mxGeometry x="540" y="550" width="110" height="50" as="geometry"/>
                </mxCell>
                <mxCell id="dp_-oXLjie-xofkenE0L-9" value="修改" style="ellipse;whiteSpace=wrap;html=1;" parent="1" vertex="1">
                    <mxGeometry x="560" y="235" width="110" height="50" as="geometry"/>
                </mxCell>
                <mxCell id="dp_-oXLjie-xofkenE0L-11" value="删除" style="ellipse;whiteSpace=wrap;html=1;" parent="1" vertex="1">
                    <mxGeometry x="560" y="320" width="110" height="50" as="geometry"/>
                </mxCell>
            </root>
        </mxGraphModel>
    </diagram>
    <diagram id="rYU-GTriVlDIFtuSl3mq" name="用户组织管理">
        <mxGraphModel dx="1086" dy="689" grid="1" gridSize="10" guides="1" tooltips="1" connect="1" arrows="1" fold="1" page="1" pageScale="1" pageWidth="827" pageHeight="1169" background="#ffffff" math="0" shadow="0">
            <root>
                <mxCell id="0"/>
                <mxCell id="1" parent="0"/>
                <mxCell id="3" value="" style="rounded=0;whiteSpace=wrap;html=1;" vertex="1" parent="1">
                    <mxGeometry x="110" y="70" width="720" height="810" as="geometry"/>
                </mxCell>
                <mxCell id="JsTxBukWdEL_QTlW3CHS-1" value="" style="rounded=0;whiteSpace=wrap;html=1;fillColor=#dae8fc;strokeColor=#6c8ebf;" parent="1" vertex="1">
                    <mxGeometry x="320" y="120" width="470" height="690" as="geometry"/>
                </mxCell>
                <mxCell id="JsTxBukWdEL_QTlW3CHS-2" style="edgeStyle=none;html=1;" parent="1" source="JsTxBukWdEL_QTlW3CHS-4" target="JsTxBukWdEL_QTlW3CHS-11" edge="1">
                    <mxGeometry relative="1" as="geometry"/>
                </mxCell>
                <mxCell id="JsTxBukWdEL_QTlW3CHS-3" style="edgeStyle=none;html=1;" parent="1" source="JsTxBukWdEL_QTlW3CHS-4" target="JsTxBukWdEL_QTlW3CHS-12" edge="1">
                    <mxGeometry relative="1" as="geometry"/>
                </mxCell>
                <mxCell id="JsTxBukWdEL_QTlW3CHS-4" value="组织管理者" style="shape=umlActor;verticalLabelPosition=bottom;verticalAlign=top;html=1;" parent="1" vertex="1">
                    <mxGeometry x="160" y="395" width="30" height="60" as="geometry"/>
                </mxCell>
                <mxCell id="JsTxBukWdEL_QTlW3CHS-14" style="edgeStyle=none;html=1;fontSize=9;" parent="1" source="JsTxBukWdEL_QTlW3CHS-5" target="JsTxBukWdEL_QTlW3CHS-13" edge="1">
                    <mxGeometry relative="1" as="geometry"/>
                </mxCell>
                <mxCell id="t9jm73eKB-5Ini__CBSm-4" style="edgeStyle=none;html=1;fontSize=9;" parent="1" source="JsTxBukWdEL_QTlW3CHS-5" target="t9jm73eKB-5Ini__CBSm-2" edge="1">
                    <mxGeometry relative="1" as="geometry"/>
                </mxCell>
                <mxCell id="t9jm73eKB-5Ini__CBSm-5" style="edgeStyle=none;html=1;fontSize=9;" parent="1" source="JsTxBukWdEL_QTlW3CHS-5" target="t9jm73eKB-5Ini__CBSm-3" edge="1">
                    <mxGeometry relative="1" as="geometry"/>
                </mxCell>
                <mxCell id="t9jm73eKB-5Ini__CBSm-6" style="edgeStyle=none;html=1;fontSize=9;" parent="1" source="JsTxBukWdEL_QTlW3CHS-5" target="t9jm73eKB-5Ini__CBSm-1" edge="1">
                    <mxGeometry relative="1" as="geometry"/>
                </mxCell>
                <mxCell id="t9jm73eKB-5Ini__CBSm-15" style="edgeStyle=none;html=1;fontSize=9;" parent="1" source="JsTxBukWdEL_QTlW3CHS-5" target="t9jm73eKB-5Ini__CBSm-14" edge="1">
                    <mxGeometry relative="1" as="geometry"/>
                </mxCell>
                <mxCell id="JsTxBukWdEL_QTlW3CHS-5" value="组织管理" style="ellipse;whiteSpace=wrap;html=1;" parent="1" vertex="1">
                    <mxGeometry x="370" y="280" width="140" height="70" as="geometry"/>
                </mxCell>
                <mxCell id="JsTxBukWdEL_QTlW3CHS-6" value="CodePod" style="text;html=1;align=center;verticalAlign=middle;resizable=0;points=[];autosize=1;strokeColor=none;fillColor=none;" parent="1" vertex="1">
                    <mxGeometry x="520" y="130" width="70" height="30" as="geometry"/>
                </mxCell>
                <mxCell id="t9jm73eKB-5Ini__CBSm-12" style="edgeStyle=none;html=1;fontSize=9;" parent="1" source="JsTxBukWdEL_QTlW3CHS-7" target="t9jm73eKB-5Ini__CBSm-10" edge="1">
                    <mxGeometry relative="1" as="geometry"/>
                </mxCell>
                <mxCell id="t9jm73eKB-5Ini__CBSm-13" style="edgeStyle=none;html=1;fontSize=9;" parent="1" source="JsTxBukWdEL_QTlW3CHS-7" target="t9jm73eKB-5Ini__CBSm-11" edge="1">
                    <mxGeometry relative="1" as="geometry"/>
                </mxCell>
                <mxCell id="JsTxBukWdEL_QTlW3CHS-7" value="组织成员管理" style="ellipse;whiteSpace=wrap;html=1;" parent="1" vertex="1">
                    <mxGeometry x="380" y="530" width="140" height="70" as="geometry"/>
                </mxCell>
                <mxCell id="JsTxBukWdEL_QTlW3CHS-8" style="edgeStyle=none;html=1;" parent="1" source="JsTxBukWdEL_QTlW3CHS-4" target="JsTxBukWdEL_QTlW3CHS-5" edge="1">
                    <mxGeometry relative="1" as="geometry"/>
                </mxCell>
                <mxCell id="JsTxBukWdEL_QTlW3CHS-9" style="edgeStyle=none;html=1;" parent="1" source="JsTxBukWdEL_QTlW3CHS-4" target="JsTxBukWdEL_QTlW3CHS-7" edge="1">
                    <mxGeometry relative="1" as="geometry"/>
                </mxCell>
                <mxCell id="JsTxBukWdEL_QTlW3CHS-10" value="用户组织管理用例图" style="text;html=1;align=center;verticalAlign=middle;resizable=0;points=[];autosize=1;strokeColor=none;fillColor=none;" parent="1" vertex="1">
                    <mxGeometry x="490" y="820" width="130" height="30" as="geometry"/>
                </mxCell>
                <mxCell id="JsTxBukWdEL_QTlW3CHS-11" value="权限管理" style="ellipse;whiteSpace=wrap;html=1;" parent="1" vertex="1">
                    <mxGeometry x="380" y="670" width="140" height="70" as="geometry"/>
                </mxCell>
                <mxCell id="JsTxBukWdEL_QTlW3CHS-12" value="个人申请加入组织" style="ellipse;whiteSpace=wrap;html=1;" parent="1" vertex="1">
                    <mxGeometry x="380" y="430" width="140" height="70" as="geometry"/>
                </mxCell>
                <mxCell id="JsTxBukWdEL_QTlW3CHS-13" value="创建" style="ellipse;whiteSpace=wrap;html=1;" parent="1" vertex="1">
                    <mxGeometry x="630" y="230" width="110" height="50" as="geometry"/>
                </mxCell>
                <mxCell id="t9jm73eKB-5Ini__CBSm-1" value="删除" style="ellipse;whiteSpace=wrap;html=1;" parent="1" vertex="1">
                    <mxGeometry x="660" y="345" width="110" height="50" as="geometry"/>
                </mxCell>
                <mxCell id="t9jm73eKB-5Ini__CBSm-2" value="查询" style="ellipse;whiteSpace=wrap;html=1;" parent="1" vertex="1">
                    <mxGeometry x="550" y="190" width="110" height="50" as="geometry"/>
                </mxCell>
                <mxCell id="t9jm73eKB-5Ini__CBSm-3" value="修改" style="ellipse;whiteSpace=wrap;html=1;" parent="1" vertex="1">
                    <mxGeometry x="670" y="290" width="110" height="50" as="geometry"/>
                </mxCell>
                <mxCell id="t9jm73eKB-5Ini__CBSm-10" value="加入审批" style="ellipse;whiteSpace=wrap;html=1;" parent="1" vertex="1">
                    <mxGeometry x="590" y="510" width="110" height="50" as="geometry"/>
                </mxCell>
                <mxCell id="t9jm73eKB-5Ini__CBSm-11" value="移除人员" style="ellipse;whiteSpace=wrap;html=1;" parent="1" vertex="1">
                    <mxGeometry x="590" y="570" width="110" height="50" as="geometry"/>
                </mxCell>
                <mxCell id="t9jm73eKB-5Ini__CBSm-14" value="转移" style="ellipse;whiteSpace=wrap;html=1;" parent="1" vertex="1">
                    <mxGeometry x="580" y="395" width="110" height="50" as="geometry"/>
                </mxCell>
            </root>
        </mxGraphModel>
    </diagram>
    <diagram id="PcJLQbqvG3nov_6K4OGd" name="个人信息管理">
        <mxGraphModel dx="1086" dy="689" grid="1" gridSize="10" guides="1" tooltips="1" connect="1" arrows="1" fold="1" page="1" pageScale="1" pageWidth="827" pageHeight="1169" math="0" shadow="0">
            <root>
                <mxCell id="0"/>
                <mxCell id="1" parent="0"/>
                <mxCell id="r-iOlFNqLa-u0I1cwawb-1" value="" style="rounded=0;whiteSpace=wrap;html=1;" vertex="1" parent="1">
                    <mxGeometry x="120" y="370" width="470" height="500" as="geometry"/>
                </mxCell>
                <mxCell id="sec1lx6zv68y4vDGXzVO-1" value="" style="rounded=0;whiteSpace=wrap;html=1;fillColor=#dae8fc;strokeColor=#6c8ebf;" parent="1" vertex="1">
                    <mxGeometry x="290" y="410" width="240" height="410" as="geometry"/>
                </mxCell>
                <mxCell id="sec1lx6zv68y4vDGXzVO-2" style="edgeStyle=none;html=1;" parent="1" source="sec1lx6zv68y4vDGXzVO-4" target="sec1lx6zv68y4vDGXzVO-11" edge="1">
                    <mxGeometry relative="1" as="geometry"/>
                </mxCell>
                <mxCell id="sec1lx6zv68y4vDGXzVO-3" style="edgeStyle=none;html=1;" parent="1" source="sec1lx6zv68y4vDGXzVO-4" target="sec1lx6zv68y4vDGXzVO-12" edge="1">
                    <mxGeometry relative="1" as="geometry"/>
                </mxCell>
                <mxCell id="sec1lx6zv68y4vDGXzVO-4" value="程序猿" style="shape=umlActor;verticalLabelPosition=bottom;verticalAlign=top;html=1;" parent="1" vertex="1">
                    <mxGeometry x="180" y="560" width="30" height="60" as="geometry"/>
                </mxCell>
                <mxCell id="sec1lx6zv68y4vDGXzVO-5" value="修改密码" style="ellipse;whiteSpace=wrap;html=1;" parent="1" vertex="1">
                    <mxGeometry x="330" y="460" width="140" height="70" as="geometry"/>
                </mxCell>
                <mxCell id="sec1lx6zv68y4vDGXzVO-6" value="CodePod" style="text;html=1;align=center;verticalAlign=middle;resizable=0;points=[];autosize=1;strokeColor=none;fillColor=none;" parent="1" vertex="1">
                    <mxGeometry x="365" y="410" width="70" height="30" as="geometry"/>
                </mxCell>
                <mxCell id="sec1lx6zv68y4vDGXzVO-7" value="修改名称" style="ellipse;whiteSpace=wrap;html=1;" parent="1" vertex="1">
                    <mxGeometry x="335" y="630" width="140" height="70" as="geometry"/>
                </mxCell>
                <mxCell id="sec1lx6zv68y4vDGXzVO-8" style="edgeStyle=none;html=1;" parent="1" source="sec1lx6zv68y4vDGXzVO-4" target="sec1lx6zv68y4vDGXzVO-5" edge="1">
                    <mxGeometry relative="1" as="geometry"/>
                </mxCell>
                <mxCell id="sec1lx6zv68y4vDGXzVO-9" style="edgeStyle=none;html=1;" parent="1" source="sec1lx6zv68y4vDGXzVO-4" target="sec1lx6zv68y4vDGXzVO-7" edge="1">
                    <mxGeometry relative="1" as="geometry"/>
                </mxCell>
                <mxCell id="sec1lx6zv68y4vDGXzVO-10" value="个人信息管理用例图" style="text;html=1;align=center;verticalAlign=middle;resizable=0;points=[];autosize=1;strokeColor=none;fillColor=none;" parent="1" vertex="1">
                    <mxGeometry x="340" y="830" width="130" height="30" as="geometry"/>
                </mxCell>
                <mxCell id="sec1lx6zv68y4vDGXzVO-11" value="注销" style="ellipse;whiteSpace=wrap;html=1;" parent="1" vertex="1">
                    <mxGeometry x="330" y="720" width="140" height="70" as="geometry"/>
                </mxCell>
                <mxCell id="sec1lx6zv68y4vDGXzVO-12" value="修改登录名" style="ellipse;whiteSpace=wrap;html=1;" parent="1" vertex="1">
                    <mxGeometry x="335" y="540" width="140" height="70" as="geometry"/>
                </mxCell>
            </root>
        </mxGraphModel>
    </diagram>
    <diagram id="HplioHUKZOr5h27hJU4u" name="空间互联">
        <mxGraphModel dx="1086" dy="612" grid="1" gridSize="10" guides="1" tooltips="1" connect="1" arrows="1" fold="1" page="1" pageScale="1" pageWidth="827" pageHeight="1169" math="0" shadow="0">
            <root>
                <mxCell id="0"/>
                <mxCell id="1" parent="0"/>
                <mxCell id="QuUtwffgKdQgyteat4WM-1" value="" style="rounded=0;whiteSpace=wrap;html=1;" parent="1" vertex="1">
                    <mxGeometry x="330" y="270" width="240" height="410" as="geometry"/>
                </mxCell>
                <mxCell id="QuUtwffgKdQgyteat4WM-2" style="edgeStyle=none;html=1;" parent="1" source="QuUtwffgKdQgyteat4WM-4" target="QuUtwffgKdQgyteat4WM-11" edge="1">
                    <mxGeometry relative="1" as="geometry"/>
                </mxCell>
                <mxCell id="QuUtwffgKdQgyteat4WM-3" style="edgeStyle=none;html=1;" parent="1" source="QuUtwffgKdQgyteat4WM-4" target="QuUtwffgKdQgyteat4WM-12" edge="1">
                    <mxGeometry relative="1" as="geometry"/>
                </mxCell>
                <mxCell id="QuUtwffgKdQgyteat4WM-4" value="程序猿" style="shape=umlActor;verticalLabelPosition=bottom;verticalAlign=top;html=1;" parent="1" vertex="1">
                    <mxGeometry x="220" y="420" width="30" height="60" as="geometry"/>
                </mxCell>
                <mxCell id="QuUtwffgKdQgyteat4WM-5" value="创建服务" style="ellipse;whiteSpace=wrap;html=1;" parent="1" vertex="1">
                    <mxGeometry x="370" y="320" width="140" height="70" as="geometry"/>
                </mxCell>
                <mxCell id="QuUtwffgKdQgyteat4WM-6" value="CodePod" style="text;html=1;align=center;verticalAlign=middle;resizable=0;points=[];autosize=1;strokeColor=none;fillColor=none;" parent="1" vertex="1">
                    <mxGeometry x="405" y="270" width="70" height="30" as="geometry"/>
                </mxCell>
                <mxCell id="QuUtwffgKdQgyteat4WM-7" value="..." style="ellipse;whiteSpace=wrap;html=1;" parent="1" vertex="1">
                    <mxGeometry x="375" y="490" width="140" height="70" as="geometry"/>
                </mxCell>
                <mxCell id="QuUtwffgKdQgyteat4WM-8" style="edgeStyle=none;html=1;" parent="1" source="QuUtwffgKdQgyteat4WM-4" target="QuUtwffgKdQgyteat4WM-5" edge="1">
                    <mxGeometry relative="1" as="geometry"/>
                </mxCell>
                <mxCell id="QuUtwffgKdQgyteat4WM-9" style="edgeStyle=none;html=1;" parent="1" source="QuUtwffgKdQgyteat4WM-4" target="QuUtwffgKdQgyteat4WM-7" edge="1">
                    <mxGeometry relative="1" as="geometry"/>
                </mxCell>
                <mxCell id="QuUtwffgKdQgyteat4WM-10" value="空间互联用例图" style="text;html=1;align=center;verticalAlign=middle;resizable=0;points=[];autosize=1;strokeColor=none;fillColor=none;" parent="1" vertex="1">
                    <mxGeometry x="390" y="690" width="110" height="30" as="geometry"/>
                </mxCell>
                <mxCell id="QuUtwffgKdQgyteat4WM-11" value="..." style="ellipse;whiteSpace=wrap;html=1;" parent="1" vertex="1">
                    <mxGeometry x="370" y="580" width="140" height="70" as="geometry"/>
                </mxCell>
                <mxCell id="QuUtwffgKdQgyteat4WM-12" value="授权空间" style="ellipse;whiteSpace=wrap;html=1;" parent="1" vertex="1">
                    <mxGeometry x="375" y="400" width="140" height="70" as="geometry"/>
                </mxCell>
            </root>
        </mxGraphModel>
    </diagram>
</mxfile>